<?xml version="1.0" standalone="no"?>
<!DOCTYPE svg PUBLIC "-//W3C//DTD SVG 1.1//EN" "http://www.w3.org/Graphics/SVG/1.1/DTD/svg11.dtd">
<svg xmlns="http://www.w3.org/2000/svg"><metadata>This SVG WebFont was generated by YouWorkForThem.
Copyright (c) 2017 by PYRS Fontlab Ltd. / Made with FontLab. All rights reserved.</metadata><defs><font horiz-adv-x="594" id="ywftsvg"><font-face ascent="800" bbox="-65 -301 1342 1005" cap-height="720" descent="-200" font-family="" font-stretch="normal" font-weight="400" panose-1="0 0 0 0 0 0 0 0 0 0" underline-position="0" underline-thickness="0" unicode-range="U+0009-FB02" units-per-em="1000" x-height="554"/><missing-glyph d="M591 666v-666h-521v666h521zM113 43h436v581h-436v-581z" horiz-adv-x="661"/><glyph d="M591 666v-666h-521v666h521zM113 43h436v581h-436v-581z" glyph-name=".notdef" horiz-adv-x="661"/><glyph glyph-name="glyph1" horiz-adv-x="0"/><glyph glyph-name="glyph2" horiz-adv-x="333"/><glyph glyph-name="uni0009" horiz-adv-x="337" unicode="&#x09;"/><glyph glyph-name="uni000A" horiz-adv-x="335" unicode="&#x0a;"/><glyph glyph-name="uni0010" horiz-adv-x="338"/><glyph glyph-name="uni0011" horiz-adv-x="643"/><glyph glyph-name="uni0012" horiz-adv-x="446"/><glyph glyph-name="uni0013" horiz-adv-x="673"/><glyph glyph-name="uni0014" horiz-adv-x="673"/><glyph glyph-name="uni001E" horiz-adv-x="814"/><glyph glyph-name="uni001F" horiz-adv-x="782"/><glyph glyph-name="space" horiz-adv-x="290" unicode=" "/><glyph d="M276 78q0 -91 -96 -91t-96 91t96 91t96 -91zM243 231h-128q-10 77 -10 121v368h148v-368q0 -44 -10 -121z" glyph-name="exclam" horiz-adv-x="360" unicode="!"/><glyph d="M374 720v-323h-125v323h125zM185 720v-323h-126v323h126z" glyph-name="quotedbl" horiz-adv-x="433" unicode="&quot;"/><glyph d="M592 537v-97h-98l-16 -130h82v-98h-93l-25 -212h-112l25 212h-98l-24 -212h-113l25 212h-90v98h101l16 130h-85v97h96l22 183h112l-22 -183h98l21 183h113l-22 -183h87zM367 310l14 130h-97l-15 -130h98z" glyph-name="numbersign" horiz-adv-x="647" unicode="#"/><glyph d="M518 477v-7h-148v3q0 67 -98 67q-89 0 -89 -50v-4q0 -18 10 -27.5t39 -19.5q14 -4 89.5 -24t86.5 -23q109 -33 109 -141v-11q0 -77 -53.5 -117.5t-148.5 -45.5v-111h-80v112q-90 9 -143 55t-53 121v23h148v-19q0 -67 97 -67q86 0 86 55v7q0 18 -10 27.5t-39 19.5 q-12 4 -86.5 23.5t-89.5 24.5q-110 32 -110 140v10q0 65 56 106t144 49v114h80v-114q93 -8 148 -53.5t55 -122.5z" glyph-name="dollar" horiz-adv-x="553" unicode="$"/><glyph d="M600 106v151q0 47 -44 47q-42 0 -42 -47v-151q0 -46 42 -46q44 0 44 46zM218 461v151q0 47 -43 47t-43 -47v-151q0 -45 43 -45t43 45zM683 248v-132q0 -123 -127 -123q-125 0 -125 123v132q0 123 125 123q127 0 127 -123zM301 603v-132q0 -123 -126 -123q-125 0 -125 123 v132q0 123 125 123q126 0 126 -123zM528 720h98l-428 -720h-98z" glyph-name="percent" horiz-adv-x="733" unicode="%"/><glyph d="M631 434v-113h-90v-321h-240q-128 0 -189.5 53t-61.5 149v29q0 102 71 147q-66 46 -66 142v17q0 85 59.5 140.5t189.5 55.5q60 0 105 -13t69 -32t39 -45.5t19 -47t4 -42.5v-33h-148v19q0 36 -23 57.5t-69 21.5q-49 0 -73 -23.5t-24 -57.5v-13q0 -40 23 -65t75 -25h330z M298 115h95v206h-108q-43 0 -65 -26.5t-22 -65.5v-23q0 -40 24.5 -65.5t75.5 -25.5z" glyph-name="ampersand" horiz-adv-x="661" unicode="&amp;"/><glyph d="M191 720v-323h-132v323h132z" glyph-name="quotesingle" horiz-adv-x="250" unicode="'"/><glyph d="M267 -179v-89h-27q-91 0 -128 42.5t-37 152.5v678q0 108 36 151t129 43h27v-88h-27q-28 0 -38.5 -15.5t-10.5 -44.5v-771q0 -29 10 -44t39 -15h27z" glyph-name="parenleft" horiz-adv-x="274" unicode="("/><glyph d="M199 605v-678q0 -110 -37 -152.5t-128 -42.5h-27v89h27q29 0 39 15t10 44v771q0 29 -10.5 44.5t-38.5 15.5h-27v88h27q93 0 129 -43t36 -151z" glyph-name="parenright" horiz-adv-x="274" unicode=")"/><glyph d="M400 630l29 -92l-121 -38l76 -104l-79 -56l-75 103l-76 -104l-78 57l76 104l-122 38l30 92l122 -39v129h96v-129z" glyph-name="asterisk" horiz-adv-x="459" unicode="*"/><glyph d="M632 339v-105h-223v-229h-116v229h-223v105h223v230h116v-230h223z" glyph-name="plus" horiz-adv-x="702" unicode="+"/><glyph d="M72 143h139l-49 -287h-127z" glyph-name="comma" horiz-adv-x="246" unicode=","/><glyph d="M272 340v-127h-237v127h237z" glyph-name="hyphen" horiz-adv-x="307" unicode="-"/><glyph d="M238 78q0 -13 -3 -25.5t-11.5 -29t-30 -26.5t-52.5 -10q-96 0 -96 91t96 91q31 0 52.5 -10t30 -26.5t11.5 -29t3 -25.5z" glyph-name="period" horiz-adv-x="283" unicode="."/><glyph d="M259 818h120l-273 -914h-121z" glyph-name="slash" horiz-adv-x="389" unicode="/"/><glyph d="M540 494v-268q0 -124 -61 -181.5t-184 -57.5t-184 57.5t-61 181.5v268q0 124 61 181.5t184 57.5t184 -57.5t61 -181.5zM392 205v307q0 106 -97 106t-97 -106v-307q0 -103 97 -103t97 103z" glyph-name="zero" horiz-adv-x="590" unicode="0"/><glyph d="M278 720v-720h-148v604h-120v116h268z" glyph-name="one" horiz-adv-x="343" unicode="1"/><glyph d="M533 115v-115h-498v105q43 47 98 106t93.5 99.5t75.5 79.5l37 38q23 25 32 44.5t9 47.5v10q0 35 -22.5 61.5t-74.5 26.5q-98 0 -98 -107v-17h-148v6q0 233 246 233q122 0 183.5 -59t61.5 -161v-16q0 -83 -68 -154q-18 -18 -218 -228h291z" glyph-name="two" horiz-adv-x="573" unicode="2"/><glyph d="M532 218v-30q0 -87 -57 -144t-189 -57t-189 57t-57 144v46h148v-41q0 -39 24.5 -65t73.5 -26t73.5 26t24.5 65v24q0 91 -105 91h-48v115h48q105 0 105 91v13q0 39 -24.5 65t-73.5 26t-73.5 -26t-24.5 -65v-36h-148v39q0 42 12 76.5t39 64t77 46t118 16.5t118 -16.5 t77 -46t39 -64t12 -76.5v-24q0 -41 -19 -79t-53 -62q33 -23 52.5 -64t19.5 -83z" glyph-name="three" horiz-adv-x="582" unicode="3"/><glyph d="M567 262v-115h-88v-147h-148v147h-306v102l292 471h162v-458h88zM331 262l4 296l-184 -296h180z" glyph-name="four" horiz-adv-x="582" unicode="4"/><glyph d="M546 239v-13q0 -124 -61 -181.5t-185 -57.5q-117 0 -177 50.5t-67 160.5h147q3 -95 97 -95q98 0 98 102v54q0 106 -98 106q-80 0 -95 -72h-150v427h455v-116h-314v-136q43 13 104 13q135 0 190.5 -63t55.5 -179z" glyph-name="five" horiz-adv-x="586" unicode="5"/><glyph d="M521 238v-12q0 -124 -61 -181.5t-184 -57.5q-124 0 -185 57.5t-61 181.5v12q0 73 25 130l158 352h163l-115 -247q11 1 34 1q226 0 226 -236zM373 205v50q0 107 -97 107q-98 0 -98 -107v-50q0 -103 98 -103q97 0 97 103z" glyph-name="six" horiz-adv-x="561" unicode="6"/><glyph d="M490 720v-97l-246 -623h-159l239 604h-319v116h485z" glyph-name="seven" horiz-adv-x="505" unicode="7"/><glyph d="M542 225v-37q0 -87 -57.5 -144t-186.5 -57t-188.5 57.5t-59.5 143.5v37q0 43 20 85.5t52 63.5q-32 22 -52 61.5t-20 80.5v18q0 82 60 140.5t188 58.5q67 0 116 -17.5t76 -47t39.5 -63t12.5 -71.5v-18q0 -41 -19.5 -81t-51.5 -61q32 -21 51.5 -63t19.5 -86zM394 516v11 q0 39 -24.5 65t-73.5 26t-73.5 -26t-24.5 -65v-11q0 -87 98 -87t98 87zM394 193v28q0 41 -24.5 68t-73.5 27q-50 0 -74 -26.5t-24 -65.5v-31q0 -39 24.5 -65t73.5 -26t73.5 26t24.5 65z" glyph-name="eight" horiz-adv-x="592" unicode="8"/><glyph d="M531 494v-26q0 -80 -26 -134l-164 -334h-166l121 233q-4 0 -10 -0.5t-10 -0.5q-119 0 -177.5 57.5t-58.5 178.5v26q0 124 61 181.5t184 57.5q124 0 185 -57.5t61 -181.5zM383 449v63q0 106 -98 106q-97 0 -97 -106v-63q0 -103 97 -103q98 0 98 103z" glyph-name="nine" horiz-adv-x="561" unicode="9"/><glyph d="M238 469q0 -13 -3 -25.5t-11.5 -28.5t-29.5 -26t-53 -10q-96 0 -96 90q0 91 96 91q31 0 52.5 -10t30 -26.5t11.5 -29t3 -25.5zM238 78q0 -13 -3 -25.5t-11.5 -29t-30 -26.5t-52.5 -10q-96 0 -96 91t96 91q31 0 52.5 -10t30 -26.5t11.5 -29t3 -25.5z" glyph-name="colon" horiz-adv-x="283" unicode=":"/><glyph d="M227 469q0 -90 -96 -90t-96 90q0 91 96 91t96 -91zM66 143h139l-41 -287h-128z" glyph-name="semicolon" horiz-adv-x="262" unicode=";"/><glyph d="M583 132v-125l-513 218v103l513 218v-126l-365 -144z" glyph-name="less" horiz-adv-x="653" unicode="&lt;"/><glyph d="M550 438v-115h-480v115h480zM550 230v-115h-480v115h480z" glyph-name="equal" horiz-adv-x="620" unicode="="/><glyph d="M584 328v-103l-514 -218v125l365 144l-365 144v126z" glyph-name="greater" horiz-adv-x="654" unicode=">"/><glyph d="M521 514v-7q0 -83 -43 -132t-128 -56v-88h-158v189h96q37 0 61 22t24 71v9q0 42 -24 68.5t-74 26.5q-49 0 -73 -26t-24 -65v-31h-148v14q0 102 60 163t185 61q129 0 187.5 -60.5t58.5 -158.5zM368 78q0 -13 -3 -25.5t-11.5 -29t-30 -26.5t-52.5 -10q-96 0 -96 91t96 91 q31 0 52.5 -10t30 -26.5t11.5 -29t3 -25.5z" glyph-name="question" horiz-adv-x="551" unicode="?"/><glyph d="M727 516v-178q0 -93 -50.5 -135t-124.5 -42h-155q-74 0 -124 41.5t-50 135.5v43q0 93 50 135t124 42h135v-322h11q53 0 76.5 23.5t23.5 85.5v166q0 86 -33 112t-114 26h-221q-81 0 -113.5 -26t-32.5 -112v-301q0 -87 32 -112.5t114 -25.5h310v-85h-296q-41 0 -72 4 t-65 17t-56 36t-36.5 63.5t-14.5 96.5v312q0 56 14.5 96.5t36.5 63.5t56 36t65 17t72 4h193q41 0 72 -4t65 -17t56.5 -36t37 -63.5t14.5 -96.5zM407 236h42v248h-42q-53 0 -76.5 -25.5t-23.5 -88.5v-25q0 -63 23.5 -86t76.5 -23z" glyph-name="at" horiz-adv-x="772" unicode="@"/><glyph d="M412 720l210 -720h-165l-36 129h-220l-36 -129h-165l215 720h197zM228 235h168l-84 324z" glyph-name="A" horiz-adv-x="622" unicode="A"/><glyph d="M595 217v-16q0 -105 -68.5 -153t-202.5 -48h-249v720h247q134 0 202.5 -47.5t68.5 -150.5v-13q0 -99 -69 -144q71 -47 71 -148zM435 500v17q0 44 -25 62.5t-82 18.5h-94v-178h98q55 0 79 18t24 62zM437 207v19q0 45 -25 64.5t-82 19.5h-96v-187h99q55 0 79.5 19.5 t24.5 64.5z" glyph-name="B" horiz-adv-x="645" unicode="B"/><glyph d="M596 294v-65q0 -66 -22.5 -114.5t-62 -75.5t-86.5 -39.5t-102 -12.5t-102 12.5t-86.5 39.5t-62 75.5t-22.5 114.5v261q0 66 22.5 114.5t62 75.5t86.5 40t102 13t102 -13t86.5 -40t62 -75.5t22.5 -114.5v-42h-158v37q0 126 -115 126q-59 0 -87 -32.5t-28 -101.5v-234 q0 -69 28 -101.5t87 -32.5t87 32.5t28 101.5v51h158z" glyph-name="C" horiz-adv-x="646" unicode="C"/><glyph d="M618 478v-237q0 -133 -72 -187t-198 -54h-273v720h273q126 0 198 -54.5t72 -187.5zM460 254v212q0 67 -28.5 99t-91.5 32h-107v-474h107q63 0 91.5 32t28.5 99z" glyph-name="D" horiz-adv-x="668" unicode="D"/><glyph d="M512 123v-123h-437v720h436v-123h-278v-174h258v-120h-258v-180h279z" glyph-name="E" horiz-adv-x="552" unicode="E"/><glyph d="M512 720v-123h-279v-183h253v-123h-253v-291h-158v720h437z" glyph-name="F" horiz-adv-x="542" unicode="F"/><glyph d="M597 388v-302q-59 -52 -117.5 -75.5t-156.5 -23.5q-55 0 -102 12.5t-86.5 39.5t-62 75.5t-22.5 114.5v261q0 66 22.5 114.5t62 75.5t86.5 40t102 13t102 -13t86.5 -40t62 -75.5t22.5 -114.5v-9h-158v4q0 126 -115 126q-59 0 -87 -32.5t-28 -101.5v-234q0 -69 28 -101.5 t87 -32.5q29 0 57 6.5t41 11.5t18 9v156h-90v96h248z" glyph-name="G" horiz-adv-x="662" unicode="G"/><glyph d="M610 720v-720h-158v303h-219v-303h-158v720h158v-294h219v294h158z" glyph-name="H" horiz-adv-x="685" unicode="H"/><glyph d="M233 720v-720h-158v720h158z" glyph-name="I" horiz-adv-x="308" unicode="I"/><glyph d="M375 720v-507q0 -226 -262 -226h-83v122h80q58 0 82.5 24t24.5 91v374h-176v122h334z" glyph-name="J" horiz-adv-x="440" unicode="J"/><glyph d="M426 438l215 -438h-174l-145 288l-80 -108v-180h-158v720h158v-295l210 295h178z" glyph-name="K" horiz-adv-x="679" unicode="K"/><glyph d="M526 123v-123h-451v720h158v-597h293z" glyph-name="L" horiz-adv-x="546" unicode="L"/><glyph d="M858 720v-720h-158v552l-172 -552h-124l-171 550v-550h-158v720h240l151 -486l151 486h241z" glyph-name="M" horiz-adv-x="933" unicode="M"/><glyph d="M620 720v-720h-161l-226 451v-451h-158v720h163l224 -450v450h158z" glyph-name="N" horiz-adv-x="695" unicode="N"/><glyph d="M596 491v-262q0 -66 -22.5 -114.5t-62 -75.5t-86.5 -39.5t-102 -12.5t-102 12.5t-86.5 39.5t-62 75.5t-22.5 114.5v262q0 66 22.5 114.5t62 75.5t86.5 39.5t102 12.5t102 -12.5t86.5 -39.5t62 -75.5t22.5 -114.5zM438 243v234q0 69 -28 101t-87 32t-87 -32t-28 -101v-234 q0 -69 28 -101.5t87 -32.5t87 32.5t28 101.5z" glyph-name="O" horiz-adv-x="646" unicode="O"/><glyph d="M589 498v-41q0 -124 -70.5 -173t-198.5 -49h-87v-235h-158v720h245q128 0 198.5 -49t70.5 -173zM431 454v47q0 96 -103 96h-95v-240h95q103 0 103 97z" glyph-name="P" horiz-adv-x="624" unicode="P"/><glyph d="M596 491v-262q0 -189 -180 -232h175v-118h-355v117q-85 18 -135.5 75t-50.5 158v262q0 66 22.5 114.5t62 75.5t86.5 39.5t102 12.5t102 -12.5t86.5 -39.5t62 -75.5t22.5 -114.5zM438 243v234q0 69 -28 101t-87 32t-87 -32t-28 -101v-234q0 -69 28 -101.5t87 -32.5 t87 32.5t28 101.5z" glyph-name="Q" horiz-adv-x="646" unicode="Q"/><glyph d="M498 289l120 -289h-176l-91 253q-10 -1 -37 -1h-81v-252h-158v720h246q126 0 198 -49.5t72 -172.5v-25q0 -133 -93 -184zM433 470v31q0 96 -103 96h-97v-223h97q103 0 103 96z" glyph-name="R" horiz-adv-x="653" unicode="R"/><glyph d="M574 206v-16q0 -98 -72.5 -150.5t-193.5 -52.5q-266 0 -266 214v20h159v-24q0 -88 113 -88q50 0 75.5 22t25.5 53v14q0 47 -47 67q-13 6 -193 64q-135 45 -135 189v15q0 96 71 148t190 52q268 0 268 -213v-5h-159v4q0 91 -110 91q-50 0 -75.5 -21t-25.5 -52v-12 q0 -24 10.5 -40t40.5 -29q12 -5 49.5 -17t83.5 -26.5t56 -17.5q135 -45 135 -189z" glyph-name="S" horiz-adv-x="614" unicode="S"/><glyph d="M521 720v-123h-173v-597h-158v597h-170v123h501z" glyph-name="T" horiz-adv-x="541" unicode="T"/><glyph d="M611 720v-491q0 -66 -22.5 -114.5t-62 -75.5t-86.5 -39.5t-102 -12.5t-102 12.5t-86.5 39.5t-62 75.5t-22.5 114.5v491h158v-477q0 -69 28 -101.5t87 -32.5t87 32.5t28 101.5v477h158z" glyph-name="U" horiz-adv-x="676" unicode="U"/><glyph d="M447 720h164l-204 -720h-207l-200 720h163l143 -536z" glyph-name="V" horiz-adv-x="611" unicode="V"/><glyph d="M792 720h162l-159 -720h-209l-109 485l-109 -485h-207l-161 720h162l111 -536l111 536h186l111 -536z" glyph-name="W" horiz-adv-x="954" unicode="W"/><glyph d="M442 362l200 -362h-178l-141 262l-144 -262h-179l203 361l-194 359h177l136 -255l134 255h177z" glyph-name="X" horiz-adv-x="642" unicode="X"/><glyph d="M436 720h174l-228 -509v-211h-158v206l-229 514h173l136 -333z" glyph-name="Y" horiz-adv-x="605" unicode="Y"/><glyph d="M572 123v-123h-537v112l336 486h-329v122h525v-116l-332 -481h337z" glyph-name="Z" horiz-adv-x="607" unicode="Z"/><glyph d="M304 -184v-90h-229v1092h229v-89h-114v-913h114z" glyph-name="bracketleft" horiz-adv-x="311" unicode="["/><glyph d="M121 818l273 -914h-121l-273 914h121z" glyph-name="backslash" horiz-adv-x="389" unicode="\"/><glyph d="M237 818v-1092h-230v90h115v913h-115v89h230z" glyph-name="bracketright" horiz-adv-x="312" unicode="]"/><glyph d="M344 720l174 -366h-107l-116 246l-117 -246h-108l175 366h99z" glyph-name="asciicircum" horiz-adv-x="588" unicode="^"/><glyph d="M525 -66v-97h-525v97h525z" glyph-name="underscore" horiz-adv-x="525" unicode="_"/><glyph d="M200 782l105 -166h-114l-124 166h133z" glyph-name="grave" horiz-adv-x="372" unicode="`"/><glyph d="M541 554v-554h-267q-46 0 -84.5 11.5t-72.5 38t-53 75t-19 116.5v71q0 68 19 117t53 75t72.5 38t84.5 12h267zM296 115h97v323h-97q-56 0 -79.5 -31t-23.5 -97v-67q0 -66 23.5 -97t79.5 -31z" glyph-name="a" horiz-adv-x="606" unicode="a"/><glyph d="M561 311v-70q0 -68 -19 -116.5t-53 -75t-72.5 -38t-84.5 -11.5h-267v767h148v-213h119q46 0 85 -12t72.5 -38.5t52.5 -75.5t19 -117zM413 243v67q0 65 -24 96.5t-80 31.5h-96v-323h96q56 0 80 31.5t24 96.5z" glyph-name="b" horiz-adv-x="606" unicode="b"/><glyph d="M401 221h148q0 -124 -68.5 -179t-184.5 -55q-251 0 -251 242v95q0 242 251 242q113 0 182.5 -53t69.5 -170h-148q0 108 -104 108q-56 0 -79.5 -31t-23.5 -97v-93q0 -66 23.5 -97t79.5 -31q105 0 105 119z" glyph-name="c" horiz-adv-x="589" unicode="c"/><glyph d="M541 767v-767h-267q-46 0 -84.5 11.5t-72.5 38t-53 75t-19 116.5v70q0 68 19 117t52.5 75.5t72.5 38.5t85 12h119v213h148zM297 115h96v323h-96q-56 0 -80 -31.5t-24 -96.5v-67q0 -65 24 -96.5t80 -31.5z" glyph-name="d" horiz-adv-x="606" unicode="d"/><glyph d="M549 324v-85h-356v-6q0 -66 23 -98.5t78 -32.5q36 0 58 12.5t29.5 26t15.5 37.5h149q-26 -191 -250 -191q-251 0 -251 242v95q0 242 251 242q253 0 253 -242zM193 333h208q0 118 -105 118q-56 0 -78.5 -29t-24.5 -89z" glyph-name="e" unicode="e"/><glyph d="M339 767v-115h-57q-45 0 -45 -58v-40h93v-116h-93v-438h-148v438h-69v116h69v64q0 80 46.5 114.5t145.5 34.5h58z" glyph-name="f" horiz-adv-x="344" unicode="f"/><glyph d="M277 554h264v-542q0 -126 -66 -175.5t-184 -49.5h-214v115h211q54 0 78.5 21.5t26.5 76.5h-96q-252 0 -252 241v70q0 128 64 185.5t168 57.5zM297 115h96v323h-96q-56 0 -80 -31.5t-24 -96.5v-67q0 -65 24 -96.5t80 -31.5z" glyph-name="g" horiz-adv-x="606" unicode="g"/><glyph d="M556 337v-337h-148v346q0 49 -22 70.5t-81 21.5h-92v-438h-148v767h148v-213h105q127 0 182.5 -47.5t55.5 -169.5z" glyph-name="h" horiz-adv-x="616" unicode="h"/><glyph d="M232 701q0 -88 -92 -88q-30 0 -50.5 9.5t-28.5 25.5t-11 28t-3 25t3 25t11 27.5t28.5 25t50.5 9.5q92 0 92 -87zM214 554v-554h-148v554h148z" glyph-name="i" horiz-adv-x="278" unicode="i"/><glyph d="M232 701q0 -88 -92 -88q-30 0 -50.5 9.5t-28.5 25.5t-11 28t-3 25t3 25t11 27.5t28.5 25t50.5 9.5q92 0 92 -87zM213 554v-552q0 -103 -51.5 -159t-148.5 -56h-54v115q59 0 82.5 21.5t23.5 85.5v545h148z" glyph-name="j" horiz-adv-x="278" unicode="j"/><glyph d="M383 332l201 -332h-173l-124 218l-74 -85v-133h-148v767h148v-429l184 216h175z" glyph-name="k" horiz-adv-x="589" unicode="k"/><glyph d="M213 767v-767h-148v767h148z" glyph-name="l" horiz-adv-x="278" unicode="l"/><glyph d="M861 337v-337h-148v346q0 49 -21 70.5t-80 21.5h-81v-438h-148v438h-170v-438h-148v554h565q122 0 176.5 -48t54.5 -169z" glyph-name="m" horiz-adv-x="921" unicode="m"/><glyph d="M555 337v-337h-148v346q0 49 -21.5 70.5t-80.5 21.5h-92v-438h-148v554h251q127 0 183 -47.5t56 -169.5z" glyph-name="n" horiz-adv-x="615" unicode="n"/><glyph d="M549 324v-95q0 -242 -253 -242q-251 0 -251 242v95q0 242 251 242q253 0 253 -242zM401 230v93q0 65 -24.5 96.5t-80.5 31.5t-79.5 -31t-23.5 -97v-93q0 -66 23.5 -97t79.5 -31t80.5 31.5t24.5 96.5z" glyph-name="o" unicode="o"/><glyph d="M562 312v-71q0 -68 -19 -116.5t-53 -75t-72.5 -38t-84.5 -11.5h-120v-213h-148v767h268q46 0 84.5 -12t72.5 -38t53 -75t19 -117zM414 243v67q0 65 -24.5 96.5t-80.5 31.5h-96v-323h96q56 0 80.5 31.5t24.5 96.5z" glyph-name="p" horiz-adv-x="607" unicode="p"/><glyph d="M541 554v-767h-148v213h-119q-46 0 -84.5 11.5t-72.5 38t-53 75t-19 116.5v71q0 68 19 117t53 75t72.5 38t84.5 12h267zM297 115h96v323h-96q-56 0 -80 -31.5t-24 -96.5v-67q0 -65 24 -96.5t80 -31.5z" glyph-name="q" horiz-adv-x="606" unicode="q"/><glyph d="M347 554v-116h-34q-55 0 -77.5 -20.5t-22.5 -67.5v-350h-148v554h282z" glyph-name="r" horiz-adv-x="352" unicode="r"/><glyph d="M518 388v-7h-148v3q0 67 -97 67q-90 0 -90 -50v-4q0 -18 10 -27.5t39 -19.5q14 -4 87 -23.5t84 -22.5q114 -34 114 -142v-11q0 -83 -62.5 -123.5t-172.5 -40.5t-176.5 46.5t-66.5 131.5v23h148v-19q0 -67 97 -67q86 0 86 55v7q0 18 -10 27.5t-39 19.5q-14 4 -87 23.5 t-84 22.5q-115 34 -115 142v10q0 72 68 114.5t172 42.5q110 0 176.5 -46.5t66.5 -131.5z" glyph-name="s" horiz-adv-x="553" unicode="s"/><glyph d="M358 554v-116h-102v-438h-148v438h-93v116h93v70q0 57 21 76.5t80 19.5h47v-166h102z" glyph-name="t" horiz-adv-x="363" unicode="t"/><glyph d="M556 554v-325q0 -242 -248 -242t-248 242v325h148v-324q0 -67 21.5 -97.5t78.5 -30.5t78.5 30.5t21.5 97.5v324h148z" glyph-name="u" horiz-adv-x="616" unicode="u"/><glyph d="M413 554h157l-184 -554h-199l-182 554h156l127 -404z" glyph-name="v" horiz-adv-x="575" unicode="v"/><glyph d="M713 554h154l-160 -554h-185l-88 368l-85 -368h-186l-158 554h154l106 -401l92 401h159l90 -400z" glyph-name="w" horiz-adv-x="872" unicode="w"/><glyph d="M390 286l173 -286h-172l-109 193l-110 -193h-172l173 287l-167 267h172l103 -175l102 175h171z" glyph-name="x" horiz-adv-x="563" unicode="x"/><glyph d="M422 554h156l-256 -767h-155l69 204q-45 16 -67 80l-164 483h156l131 -413z" glyph-name="y" horiz-adv-x="583" unicode="y"/><glyph d="M490 115v-115h-460v105l259 333h-252v116h449v-104l-261 -335h265z" glyph-name="z" horiz-adv-x="520" unicode="z"/><glyph d="M277 -184v-90h-7q-98 0 -136.5 33t-38.5 123v216q0 75 -16.5 96t-71.5 21v114q55 0 71.5 21.5t16.5 96.5v216q0 90 38.5 122.5t136.5 32.5h7v-89h-17q-30 0 -40 -15.5t-10 -45.5v-239q0 -76 -17 -110.5t-62 -46.5q45 -12 62 -46t17 -110v-240q0 -30 10 -45t40 -15h17z " glyph-name="braceleft" horiz-adv-x="284" unicode="{"/><glyph d="M186 767v-1041h-116v1041h116z" glyph-name="bar" horiz-adv-x="256" unicode="|"/><glyph d="M278 329v-114q-56 0 -72.5 -21t-16.5 -96v-216q0 -90 -38.5 -123t-135.5 -33h-8v90h17q30 0 40 15t10 45v240q0 76 17 110t62 46q-45 12 -62 46.5t-17 110.5v239q0 30 -10 45.5t-40 15.5h-17v89h8q98 0 136 -32.5t38 -122.5v-216q0 -75 17 -96.5t72 -21.5z" glyph-name="braceright" horiz-adv-x="285" unicode="}"/><glyph d="M532 557v-116q-56 -31 -116 -31q-46 0 -106 21t-105 21q-57 0 -121 -32v115q64 32 121 32q45 0 105 -21t106 -21q58 0 116 32z" glyph-name="asciitilde" horiz-adv-x="616" unicode="~"/><glyph glyph-name="uni007F" horiz-adv-x="783"/><glyph glyph-name="uni00A0" horiz-adv-x="381" unicode=" "/><glyph d="M84 463q0 91 96 91t96 -91t-96 -91t-96 91zM117 310h128q10 -77 10 -121v-368h-148v368q0 44 10 121z" glyph-name="exclamdown" horiz-adv-x="360" unicode="¡"/><glyph d="M399 311h149q-15 -183 -210 -202v-143h-79v143q-214 17 -214 240v32q0 224 214 241v145h79v-145q91 -8 147.5 -56.5t62.5 -142.5h-149q-11 85 -103 85q-56 0 -79.5 -31t-23.5 -97v-30q0 -66 23.5 -97t79.5 -31q89 0 103 89z" glyph-name="cent" horiz-adv-x="593" unicode="¢"/><glyph d="M516 115v-115h-491v115h83q49 0 49 64v169h-123v69h123v77q0 226 255 226h88v-116h-88q-56 0 -81.5 -21.5t-25.5 -78.5v-87h172v-69h-172v-136q0 -57 -14 -97h225z" glyph-name="sterling" horiz-adv-x="566" unicode="£"/><glyph d="M574 273v-65h-198v-208h-147v208h-199v65h177l-23 57h-154v65h129l-128 325h159l113 -323l112 323h159l-129 -325h129v-65h-155l-23 -57h178z" glyph-name="yen" horiz-adv-x="604" unicode="¥"/><glyph d="M195 741v-396h-116v396h116zM195 121v-422h-116v422h116z" glyph-name="brokenbar" horiz-adv-x="274" unicode="¦"/><glyph d="M523 116v-10q0 -72 -68 -114.5t-172 -42.5q-110 0 -176.5 46.5t-66.5 131.5v7h148v-3q0 -67 97 -67q90 0 90 50v4q0 18 -10 27.5t-39 19.5q-14 4 -87 23.5t-84 22.5q-114 34 -114 142v11q0 63 37 102q-38 36 -38 100v10q0 72 68 114.5t172 42.5q110 0 176.5 -46.5 t66.5 -131.5v-7h-148v3q0 67 -97 67q-90 0 -90 -50v-4q0 -18 10 -27.5t39 -19.5q14 -4 87 -23.5t84 -22.5q114 -34 114 -142v-11q0 -63 -37 -102q38 -36 38 -100zM375 324v7q0 18 -10 27.5t-39 19.5q-6 2 -103 28q-35 -12 -35 -48v-7q0 -18 10 -27.5t39 -19.5q6 -2 103 -28 q35 12 35 48z" glyph-name="section" horiz-adv-x="563" unicode="§"/><glyph d="M416 684q0 -67 -70 -67t-70 67t70 67t70 -67zM208 684q0 -67 -71 -67q-70 0 -70 67t70 67q71 0 71 -67z" glyph-name="dieresis" horiz-adv-x="483" unicode="¨"/><glyph d="M555 334v-41q0 -62 -38.5 -92t-100.5 -30t-100.5 30t-38.5 92v130q0 62 38.5 92t100.5 30t100.5 -30t38.5 -92v-25h-87v20q0 58 -52 58t-52 -60v-115q0 -61 52 -61t52 61v33h87zM45 360q0 168 102.5 270.5t270.5 102.5t270.5 -102.5t102.5 -270.5t-102.5 -270.5 t-270.5 -102.5t-270.5 102.5t-102.5 270.5zM129 361q0 -131 79.5 -210t209.5 -79t209 79.5t79 209.5t-79 209t-209 79t-209.5 -79t-79.5 -209z" glyph-name="copyright" horiz-adv-x="835" unicode="©"/><glyph d="M337 659v-338h-162q-61 0 -100.5 34t-39.5 113v44q0 79 39.5 113t100.5 34h162zM194 399h47v182h-47q-34 0 -48.5 -19t-14.5 -59v-26q0 -40 14.5 -59t48.5 -19z" glyph-name="ordfeminine" horiz-adv-x="377" unicode="ª"/><glyph d="M281 470h109l-97 -193l96 -193h-107l-96 193zM111 277l97 -193h-107l-96 193l95 193h108z" glyph-name="guillemotleft" horiz-adv-x="420" unicode="«"/><glyph d="M547 431v-310h-116v206h-361v104h477z" glyph-name="logicalnot" horiz-adv-x="617" unicode="¬"/><glyph d="M510 326l56 -141h-89l-43 123q-2 0 -7.5 -0.5t-7.5 -0.5h-36v-122h-85v357h124q134 0 134 -111v-12q0 -67 -46 -93zM472 417v15q0 42 -46 42h-43v-100h43q46 0 46 43zM45 360q0 168 102.5 270.5t270.5 102.5t270.5 -102.5t102.5 -270.5t-102.5 -270.5t-270.5 -102.5 t-270.5 102.5t-102.5 270.5zM129 361q0 -131 79.5 -210t209.5 -79t209 79.5t79 209.5t-79 209t-209 79t-209.5 -79t-79.5 -209z" glyph-name="registered" horiz-adv-x="835" unicode="®"/><glyph d="M485 746v-92h-376v92h376z" glyph-name="macron" unicode="¯"/><glyph d="M329 581q0 -16 -2 -30.5t-10.5 -35.5t-23.5 -36t-43.5 -26t-67.5 -11t-67.5 11t-43.5 26t-23.5 36t-10.5 35.5t-2 30.5t2 30.5t10.5 35.5t23.5 36t43.5 26t67.5 11t67.5 -11t43.5 -26t23.5 -36t10.5 -35.5t2 -30.5zM253 581q0 67 -71 67q-30 0 -47.5 -13.5t-21 -26.5 t-3.5 -27q0 -10 2 -19.5t8.5 -21.5t22.5 -19.5t39 -7.5q71 0 71 68z" glyph-name="degree" horiz-adv-x="394" unicode="°"/><glyph d="M551 402v-97h-183v-142h-116v142h-182v97h182v143h116v-143h183zM551 105v-105h-481v105h481z" glyph-name="plusminus" horiz-adv-x="621" unicode="±"/><glyph d="M313 390v-71h-278v63l165 178q22 22 22 47v3q0 45 -49 45t-49 -53v-12h-89v7q0 130 138 130q66 0 102 -32t36 -92v-5q0 -50 -39 -91l-111 -117h152z" glyph-name="uni00B2" horiz-adv-x="348" unicode="²"/><glyph d="M310 441v-16q0 -113 -137 -113q-71 0 -104.5 30.5t-33.5 82.5v29h88v-26q0 -20 12.5 -33t37.5 -13q24 0 36.5 12.5t12.5 33.5v13q0 46 -52 46h-26v71h25q53 0 53 46v7q0 20 -12.5 32.5t-36.5 12.5t-37 -12.5t-13 -32.5v-24h-88v26q0 114 138 114q137 0 137 -114v-13 q0 -50 -35 -78q35 -28 35 -81z" glyph-name="uni00B3" horiz-adv-x="345" unicode="³"/><glyph d="M158 784h133l-124 -166h-114z" glyph-name="acute" horiz-adv-x="345" unicode="´"/><glyph d="M563 554v-325q0 -242 -249 -242q-62 0 -101 23v-223h-148v767h148v-327q0 -64 22.5 -94.5t78.5 -30.5q57 0 79 30.5t22 97.5v324h148z" glyph-name="uni00B5" horiz-adv-x="623" unicode="µ"/><glyph d="M585 720v-994h-102v835h-129v-835h-103v619h-60q-64 0 -105 36.5t-41 124.5v53q0 88 41 124.5t105 36.5h394z" glyph-name="paragraph" horiz-adv-x="660" unicode="¶"/><glyph d="M238 335q0 -13 -3 -25.5t-11.5 -29t-30 -26.5t-52.5 -10q-96 0 -96 91t96 91q31 0 52.5 -10t30 -26.5t11.5 -29t3 -25.5z" glyph-name="periodcentered" horiz-adv-x="283" unicode="·"/><glyph d="M413 -114v-8q0 -91 -110 -91h-84v70h63q35 0 35 30q0 29 -36 29h-60l38 144h97l-23 -86q38 -4 59 -28t21 -60z" glyph-name="cedilla" unicode="¸"/><glyph d="M172 720v-401h-88v330h-64v71h152z" glyph-name="uni00B9" horiz-adv-x="192" unicode="¹"/><glyph d="M343 519v-58q0 -75 -40.5 -111.5t-114.5 -36.5q-153 0 -153 148v58q0 147 153 147q155 0 155 -147zM246 462v55q0 38 -13 55.5t-45 17.5t-45 -17.5t-13 -55.5v-55q0 -38 12.5 -55t45.5 -17t45.5 17t12.5 55z" glyph-name="ordmasculine" horiz-adv-x="378" unicode="º"/><glyph d="M319 470l96 -193l-96 -193h-107l96 193l-96 193h107zM138 470l96 -193l-96 -193h-108l97 193l-97 193h108z" glyph-name="guillemotright" horiz-adv-x="420" unicode="»"/><glyph d="M480 720h98l-428 -720h-98zM625 152v-72h-49v-80h-89v80h-168v62l162 260h95v-250h49zM204 720v-403h-89v332h-65v71h154zM487 152l1 146l-91 -146h90z" glyph-name="onequarter" horiz-adv-x="675" unicode="¼"/><glyph d="M670 71v-71h-278v63l165 178q22 22 22 47v3q0 45 -49 45t-49 -53v-12h-89v6q0 131 138 131q66 0 102 -32t36 -92v-5q0 -50 -39 -91l-111 -117h152zM204 720v-403h-89v332h-65v71h154zM480 720h98l-428 -720h-98z" glyph-name="onehalf" horiz-adv-x="720" unicode="½"/><glyph d="M575 720h98l-428 -720h-98zM720 152v-72h-49v-80h-89v80h-168v62l162 260h95v-250h49zM326 441v-16q0 -115 -137 -115q-71 0 -105 31t-34 84v29h89v-26q0 -21 13 -34t37 -13t36.5 13t12.5 34v13q0 46 -52 46h-26v70h25q53 0 53 45v8q0 20 -12.5 33t-36.5 13t-37 -13 t-13 -33v-24h-89v26q0 53 34 84t105 31q137 0 137 -115v-13q0 -49 -35 -77q35 -29 35 -81zM582 152l1 146l-91 -146h90z" glyph-name="threequarters" horiz-adv-x="770" unicode="¾"/><glyph d="M356 457q0 -91 -96 -91q-31 0 -52.5 10t-30 26.5t-11.5 29t-3 25.5t3 25.5t11.5 29t30 26.5t52.5 10q96 0 96 -91zM501 40v-14q0 -102 -60 -163t-185 -61q-129 0 -187.5 60.5t-58.5 158.5v7q0 83 43 132t128 56v88h158v-189h-96q-37 0 -61 -22t-24 -71v-9q0 -42 24 -68.5 t74 -26.5q49 0 73 26t24 65v31h148z" glyph-name="questiondown" horiz-adv-x="491" unicode="¿"/><glyph d="M297 949l104 -167h-114l-124 167h134zM412 720l210 -720h-165l-36 129h-220l-36 -129h-165l215 720h197zM228 235h168l-84 324z" glyph-name="Agrave" horiz-adv-x="622" unicode="À"/><glyph d="M326 951h133l-123 -166h-114zM412 720l210 -720h-165l-36 129h-220l-36 -129h-165l215 720h197zM228 235h168l-84 324z" glyph-name="Aacute" horiz-adv-x="622" unicode="Á"/><glyph d="M393 947l122 -149h-114l-90 90l-90 -90h-114l122 149h164zM412 720l210 -720h-165l-36 129h-220l-36 -129h-165l215 720h197zM228 235h168l-84 324z" glyph-name="Acircumflex" horiz-adv-x="622" unicode="Â"/><glyph d="M506 920v-94q-50 -23 -93 -23q-42 0 -98.5 20.5t-99.5 20.5q-45 0 -99 -24v94q54 24 99 24q43 0 99.5 -20.5t98.5 -20.5q43 0 93 23zM412 720l210 -720h-165l-36 129h-220l-36 -129h-165l215 720h197zM228 235h168l-84 324z" glyph-name="Atilde" horiz-adv-x="622" unicode="Ã"/><glyph d="M488 865q0 -67 -71 -67q-72 0 -72 67q0 68 72 68q71 0 71 -68zM277 865q0 -67 -71 -67q-72 0 -72 67q0 68 72 68q71 0 71 -68zM412 720l210 -720h-165l-36 129h-220l-36 -129h-165l215 720h197zM228 235h168l-84 324z" glyph-name="Adieresis" horiz-adv-x="622" unicode="Ä"/><glyph d="M440 883q0 -18 -3.5 -34.5t-15 -38.5t-40 -35.5t-70.5 -13.5t-70.5 13.5t-40 35.5t-15 38.5t-3.5 34.5t3.5 34.5t15 38.5t40 35.5t70.5 13.5t70.5 -13.5t40 -35.5t15 -38.5t3.5 -34.5zM412 718l209 -718h-165l-36 128h-219l-36 -128h-165l215 718h197zM372 883 q0 57 -61 57t-61 -57t61 -57t61 57zM228 235h167l-84 323z" glyph-name="Aring" horiz-adv-x="621" unicode="Å"/><glyph d="M781 123v-123h-340l-25 129h-210l-39 -129h-167l233 720h546v-123h-301l39 -174h243v-120h-220l41 -180h200zM236 235h163l-63 326z" glyph-name="AE" horiz-adv-x="821" unicode="Æ"/><glyph d="M596 294v-65q0 -114 -63.5 -172t-165.5 -68l-3 -15q38 -4 59 -27.5t21 -59.5v-9q0 -91 -111 -91h-83v70h62q35 0 35 30q0 29 -35 29h-59l19 74q-99 12 -160.5 69.5t-61.5 169.5v261q0 66 22.5 114.5t62 75.5t86.5 40t102 13t102 -13t86.5 -40t62 -75.5t22.5 -114.5v-42 h-158v37q0 126 -115 126q-59 0 -87 -32.5t-28 -101.5v-234q0 -69 28 -101.5t87 -32.5t87 32.5t28 101.5v51h158z" glyph-name="Ccedilla" horiz-adv-x="646" unicode="Ç"/><glyph d="M284 949l105 -167h-115l-124 167h134zM512 122v-122h-437v720h436v-123h-278v-174h258v-120h-258v-181h279z" glyph-name="Egrave" horiz-adv-x="552" unicode="È"/><glyph d="M303 951h133l-124 -167h-114zM512 122v-122h-437v720h436v-123h-278v-174h258v-120h-258v-181h279z" glyph-name="Eacute" horiz-adv-x="552" unicode="É"/><glyph d="M375 949l123 -149h-114l-91 90l-90 -90h-114l123 149h163zM512 122v-122h-437v720h435v-123h-277v-174h258v-120h-258v-181h279z" glyph-name="Ecircumflex" horiz-adv-x="552" unicode="Ê"/><glyph d="M470 865q0 -67 -71 -67q-72 0 -72 67q0 68 72 68q71 0 71 -68zM260 865q0 -67 -72 -67t-72 67q0 68 72 68t72 -68zM512 122v-122h-437v720h436v-123h-278v-174h258v-120h-258v-181h279z" glyph-name="Edieresis" horiz-adv-x="552" unicode="Ë"/><glyph d="M127 952l104 -165h-114l-123 165h133zM234 720v-720h-159v720h159z" glyph-name="Igrave" horiz-adv-x="309" unicode="Ì"/><glyph d="M180 952h133l-123 -165h-114zM234 720v-720h-159v720h159z" glyph-name="Iacute" horiz-adv-x="309" unicode="Í"/><glyph d="M236 949l123 -149h-114l-90 90l-91 -90h-114l123 149h163zM234 720v-720h-159v720h159z" glyph-name="Icircumflex" horiz-adv-x="309" unicode="Î"/><glyph d="M331 867q0 -68 -71 -68t-71 68t71 68t71 -68zM120 867q0 -68 -70 -68q-72 0 -72 68t72 68q70 0 70 -68zM234 720v-720h-159v720h159z" glyph-name="Idieresis" horiz-adv-x="309" unicode="Ï"/><glyph d="M626 478v-237q0 -133 -71.5 -187t-197.5 -54h-274v320h-68v93h68v307h274q60 0 106 -11.5t84 -37.5t58.5 -75t20.5 -118zM468 254v212q0 67 -28.5 99t-91.5 32h-107v-184h119v-93h-119v-197h107q63 0 91.5 32t28.5 99z" glyph-name="Eth" horiz-adv-x="676" unicode="Ð"/><glyph d="M542 920v-94q-52 -24 -94 -24t-98.5 20.5t-99.5 20.5q-44 0 -98 -24v94q56 25 98 25q43 0 99.5 -20.5t98.5 -20.5q44 0 94 23zM620 720v-720h-161l-226 451v-451h-158v720h163l224 -450v450h158z" glyph-name="Ntilde" horiz-adv-x="695" unicode="Ñ"/><glyph d="M295 949l105 -167h-114l-124 167h133zM596 491v-262q0 -66 -22.5 -114.5t-62 -75.5t-86.5 -39.5t-102 -12.5t-102 12.5t-86.5 39.5t-62 75.5t-22.5 114.5v262q0 66 22.5 114.5t62 75.5t86.5 39.5t102 12.5t102 -12.5t86.5 -39.5t62 -75.5t22.5 -114.5zM438 243v234 q0 69 -28 101t-87 32t-87 -32t-28 -101v-234q0 -69 28 -101.5t87 -32.5t87 32.5t28 101.5z" glyph-name="Ograve" horiz-adv-x="646" unicode="Ò"/><glyph d="M350 951h133l-124 -167h-114zM596 491v-262q0 -66 -22.5 -114.5t-62 -75.5t-86.5 -39.5t-102 -12.5t-102 12.5t-86.5 39.5t-62 75.5t-22.5 114.5v262q0 66 22.5 114.5t62 75.5t86.5 39.5t102 12.5t102 -12.5t86.5 -39.5t62 -75.5t22.5 -114.5zM438 243v234q0 69 -28 101 t-87 32t-87 -32t-28 -101v-234q0 -69 28 -101.5t87 -32.5t87 32.5t28 101.5z" glyph-name="Oacute" horiz-adv-x="646" unicode="Ó"/><glyph d="M405 946l122 -148h-113l-91 90l-91 -90h-113l121 148h165zM596 491v-262q0 -66 -22.5 -114.5t-62 -75.5t-86.5 -39.5t-102 -12.5t-102 12.5t-86.5 39.5t-62 75.5t-22.5 114.5v262q0 66 22.5 114.5t62 75.5t86.5 39.5t102 12.5t102 -12.5t86.5 -39.5t62 -75.5t22.5 -114.5 zM438 243v234q0 69 -28 101t-87 32t-87 -32t-28 -101v-234q0 -69 28 -101.5t87 -32.5t87 32.5t28 101.5z" glyph-name="Ocircumflex" horiz-adv-x="646" unicode="Ô"/><glyph d="M517 920v-94q-52 -24 -92 -24q-42 0 -99 20.5t-100 20.5q-44 0 -98 -24v94q56 25 98 25q43 0 100 -20.5t99 -20.5t92 23zM596 491v-262q0 -66 -22.5 -114.5t-62 -75.5t-86.5 -39.5t-102 -12.5t-102 12.5t-86.5 39.5t-62 75.5t-22.5 114.5v262q0 66 22.5 114.5t62 75.5 t86.5 39.5t102 12.5t102 -12.5t86.5 -39.5t62 -75.5t22.5 -114.5zM438 243v234q0 69 -28 101t-87 32t-87 -32t-28 -101v-234q0 -69 28 -101.5t87 -32.5t87 32.5t28 101.5z" glyph-name="Otilde" horiz-adv-x="646" unicode="Õ"/><glyph d="M500 865q0 -67 -72 -67t-72 67q0 68 72 68t72 -68zM289 865q0 -67 -72 -67q-71 0 -71 67q0 68 71 68q72 0 72 -68zM596 491v-262q0 -66 -22.5 -114.5t-62 -75.5t-86.5 -39.5t-102 -12.5t-102 12.5t-86.5 39.5t-62 75.5t-22.5 114.5v262q0 66 22.5 114.5t62 75.5 t86.5 39.5t102 12.5t102 -12.5t86.5 -39.5t62 -75.5t22.5 -114.5zM438 243v234q0 69 -28 101t-87 32t-87 -32t-28 -101v-234q0 -69 28 -101.5t87 -32.5t87 32.5t28 101.5z" glyph-name="Odieresis" horiz-adv-x="646" unicode="Ö"/><glyph d="M379 277l153 -154l-77 -78l-154 154l-153 -154l-78 78l153 154l-153 153l78 79l153 -154l154 154l77 -79z" glyph-name="multiply" horiz-adv-x="602" unicode="×"/><glyph d="M597 490v-261q0 -66 -22.5 -114.5t-62.5 -75.5t-87 -39.5t-102 -12.5q-94 0 -158 35l-39 -62l-75 46l44 71q-45 57 -45 152v261q0 66 22.5 114.5t62 75.5t86.5 40t102 13q89 0 155 -33l38 63l75 -47l-43 -70q49 -60 49 -156zM439 243v234q0 69 -28.5 101t-87.5 32 t-87 -32t-28 -101v-234q0 -69 28 -101t87 -32t87.5 32t28.5 101z" glyph-name="Oslash" horiz-adv-x="646" unicode="Ø"/><glyph d="M314 949l105 -167h-115l-123 167h133zM611 720v-491q0 -66 -22.5 -114.5t-62 -75.5t-86.5 -39.5t-102 -12.5t-102 12.5t-86.5 39.5t-62 75.5t-22.5 114.5v491h158v-477q0 -69 28 -101.5t87 -32.5t87 32.5t28 101.5v477h158z" glyph-name="Ugrave" horiz-adv-x="676" unicode="Ù"/><glyph d="M355 951h134l-124 -167h-115zM611 720v-491q0 -66 -22.5 -114.5t-62 -75.5t-86.5 -39.5t-102 -12.5t-102 12.5t-86.5 39.5t-62 75.5t-22.5 114.5v491h158v-477q0 -69 28 -101.5t87 -32.5t87 32.5t28 101.5v477h158z" glyph-name="Uacute" horiz-adv-x="676" unicode="Ú"/><glyph d="M420 946l122 -148h-113l-91 90l-90 -90h-114l122 148h164zM611 720v-491q0 -66 -22.5 -114.5t-62 -75.5t-86.5 -39.5t-102 -12.5t-102 12.5t-86.5 39.5t-62 75.5t-22.5 114.5v491h158v-477q0 -69 28 -101.5t87 -32.5t87 32.5t28 101.5v477h158z" glyph-name="Ucircumflex" horiz-adv-x="676" unicode="Û"/><glyph d="M514 865q0 -67 -71 -67q-72 0 -72 67q0 68 72 68q71 0 71 -68zM304 865q0 -67 -72 -67q-71 0 -71 67q0 68 71 68q72 0 72 -68zM611 720v-491q0 -66 -22.5 -114.5t-62 -75.5t-86.5 -39.5t-102 -12.5t-102 12.5t-86.5 39.5t-62 75.5t-22.5 114.5v491h158v-477 q0 -69 28 -101.5t87 -32.5t87 32.5t28 101.5v477h158z" glyph-name="Udieresis" horiz-adv-x="676" unicode="Ü"/><glyph d="M332 951h133l-123 -167h-115zM437 720h174l-228 -509v-211h-159v206l-229 514h174l135 -333z" glyph-name="Yacute" horiz-adv-x="606" unicode="Ý"/><glyph d="M589 391v-40q0 -124 -71.5 -173t-199.5 -49h-85v-129h-158v720h158v-107h85q128 0 199.5 -49t71.5 -173zM431 347v48q0 96 -103 96h-95v-240h95q103 0 103 96z" glyph-name="Thorn" horiz-adv-x="624" unicode="Þ"/><glyph d="M557 224v-36q0 -44 -10.5 -77t-36.5 -63t-77 -45.5t-126 -15.5h-17v115h21q49 0 73.5 26t24.5 65v28q0 39 -24 65.5t-74 26.5h-21v114h16q48 0 73 26t25 65v12q0 36 -24 62t-72 26q-47 0 -71 -26t-24 -66v-526h-148v530q0 41 11 75t37 64t75.5 47t118.5 17 q126 0 185.5 -58t59.5 -145v-17q0 -95 -67 -142q33 -23 52.5 -64t19.5 -83z" glyph-name="germandbls" horiz-adv-x="607" unicode="ß"/><glyph d="M303 782l105 -166h-115l-124 166h134zM541 554v-554h-267q-46 0 -84.5 11.5t-72.5 38t-53 75t-19 116.5v71q0 68 19 117t53 75t72.5 38t84.5 12h267zM296 115h97v323h-97q-56 0 -79.5 -31t-23.5 -97v-67q0 -66 23.5 -97t79.5 -31z" glyph-name="agrave" horiz-adv-x="606" unicode="à"/><glyph d="M357 784h133l-124 -166h-114zM541 554v-554h-267q-46 0 -84.5 11.5t-72.5 38t-53 75t-19 116.5v71q0 68 19 117t53 75t72.5 38t84.5 12h267zM296 115h97v323h-97q-56 0 -79.5 -31t-23.5 -97v-67q0 -66 23.5 -97t79.5 -31z" glyph-name="aacute" horiz-adv-x="606" unicode="á"/><glyph d="M397 780l122 -148h-113l-91 89l-90 -89h-114l122 148h164zM541 554v-554h-267q-46 0 -84.5 11.5t-72.5 38t-53 75t-19 116.5v71q0 68 19 117t53 75t72.5 38t84.5 12h267zM296 115h97v323h-97q-56 0 -79.5 -31t-23.5 -97v-67q0 -66 23.5 -97t79.5 -31z" glyph-name="acircumflex" horiz-adv-x="606" unicode="â"/><glyph d="M504 754v-95q-48 -22 -93 -22q-42 0 -98.5 20t-99.5 20q-45 0 -99 -24v95q54 24 99 24q43 0 99.5 -21t98.5 -21q41 0 93 24zM541 554v-554h-267q-46 0 -84.5 11.5t-72.5 38t-53 75t-19 116.5v71q0 68 19 117t53 75t72.5 38t84.5 12h267zM296 115h97v323h-97 q-56 0 -79.5 -31t-23.5 -97v-67q0 -66 23.5 -97t79.5 -31z" glyph-name="atilde" horiz-adv-x="606" unicode="ã"/><glyph d="M496 699q0 -67 -72 -67t-72 67q0 68 72 68t72 -68zM285 699q0 -67 -72 -67t-72 67q0 68 72 68t72 -68zM541 554v-554h-267q-46 0 -84.5 11.5t-72.5 38t-53 75t-19 116.5v71q0 68 19 117t53 75t72.5 38t84.5 12h267zM296 115h97v323h-97q-56 0 -79.5 -31t-23.5 -97v-67 q0 -66 23.5 -97t79.5 -31z" glyph-name="adieresis" horiz-adv-x="606" unicode="ä"/><glyph d="M454 718q0 -18 -4 -34.5t-15.5 -38.5t-40 -35.5t-70.5 -13.5t-70.5 13.5t-40 35.5t-15.5 38.5t-4 34.5t4 35t15.5 39t40 35.5t70.5 13.5t70.5 -13.5t40 -35.5t15.5 -39t4 -35zM541 554v-554h-267q-46 0 -84.5 11.5t-72.5 38t-53 75t-19 116.5v71q0 68 19 117t53 75 t72.5 38t84.5 12h267zM385 718q0 58 -61 58t-61 -58q0 -57 61 -57t61 57zM296 115h97v323h-97q-56 0 -79.5 -31t-23.5 -97v-67q0 -66 23.5 -97t79.5 -31z" glyph-name="aring" horiz-adv-x="606" unicode="å"/><glyph d="M897 324v-85h-356v-6q0 -66 23 -98.5t78 -32.5q36 0 58 12.5t29.5 26t15.5 37.5h149q-26 -191 -250 -191q-57 0 -102 13h-268q-46 0 -84.5 11.5t-72.5 38t-53 75t-19 116.5v71q0 68 19 117t53 75t72.5 38t84.5 12h271q45 12 99 12q253 0 253 -242zM541 333h208 q0 118 -105 118q-56 0 -78.5 -29t-24.5 -89zM296 115h97v323h-97q-56 0 -79.5 -31t-23.5 -97v-67q0 -66 23.5 -97t79.5 -31z" glyph-name="ae" horiz-adv-x="942" unicode="æ"/><glyph d="M401 221h148q0 -213 -213 -232l-3 -15q38 -4 59 -27.5t21 -59.5v-9q0 -91 -111 -91h-83v70h62q35 0 35 30q0 29 -35 29h-59l19 74q-196 26 -196 239v95q0 242 251 242q54 0 98 -11.5t79.5 -37t55 -69.5t19.5 -105h-148q0 108 -104 108q-56 0 -79.5 -31t-23.5 -97v-93 q0 -66 23.5 -97t79.5 -31q105 0 105 119z" glyph-name="ccedilla" horiz-adv-x="589" unicode="ç"/><glyph d="M257 782l105 -166h-115l-123 166h133zM549 324v-85h-356v-6q0 -66 23 -98.5t78 -32.5q36 0 58 12.5t29.5 26t15.5 37.5h149q-26 -191 -250 -191q-251 0 -251 242v95q0 242 251 242q253 0 253 -242zM193 333h208q0 118 -105 118q-56 0 -78.5 -29t-24.5 -89z" glyph-name="egrave" unicode="è"/><glyph d="M335 784h133l-124 -166h-114zM549 324v-85h-356v-6q0 -66 23 -98.5t78 -32.5q36 0 58 12.5t29.5 26t15.5 37.5h149q-26 -191 -250 -191q-251 0 -251 242v95q0 242 251 242q253 0 253 -242zM193 333h208q0 118 -105 118q-56 0 -78.5 -29t-24.5 -89z" glyph-name="eacute" unicode="é"/><glyph d="M379 780l122 -148h-113l-91 89l-90 -89h-114l122 148h164zM549 324v-85h-356v-6q0 -66 23 -98.5t78 -32.5q36 0 58 12.5t29.5 26t15.5 37.5h149q-26 -191 -250 -191q-251 0 -251 242v95q0 242 251 242q253 0 253 -242zM193 333h208q0 118 -105 118q-56 0 -78.5 -29 t-24.5 -89z" glyph-name="ecircumflex" unicode="ê"/><glyph d="M474 699q0 -67 -72 -67q-71 0 -71 67q0 68 71 68q72 0 72 -68zM263 699q0 -67 -72 -67q-71 0 -71 67q0 68 71 68q72 0 72 -68zM549 324v-85h-356v-6q0 -66 23 -98.5t78 -32.5q36 0 58 12.5t29.5 26t15.5 37.5h149q-26 -191 -250 -191q-251 0 -251 242v95q0 242 251 242 q253 0 253 -242zM193 333h208q0 118 -105 118q-56 0 -78.5 -29t-24.5 -89z" glyph-name="edieresis" unicode="ë"/><glyph d="M114 784l104 -166h-114l-123 166h133zM212 554v-554h-148v554h148z" glyph-name="igrave" horiz-adv-x="278" unicode="ì"/><glyph d="M165 784h132l-123 -166h-114zM213 554v-554h-148v554h148z" glyph-name="iacute" horiz-adv-x="278" unicode="í"/><glyph d="M222 782l122 -148h-114l-90 90l-91 -90h-114l123 148h164zM213 554v-554h-148v554h148z" glyph-name="icircumflex" horiz-adv-x="278" unicode="î"/><glyph d="M315 701q0 -67 -71 -67t-71 67t71 67t71 -67zM104 701q0 -67 -70 -67q-72 0 -72 67t72 67q70 0 70 -67zM212 554v-554h-148v554h148z" glyph-name="idieresis" horiz-adv-x="277" unicode="ï"/><glyph d="M549 277v-48q0 -242 -252 -242t-252 242v48q0 239 251 239l-53 81l-151 -38l-21 81l126 33l-59 94h166l37 -58l141 36l20 -82l-117 -31l128 -208q36 -58 36 -147zM401 230v45q0 65 -24.5 96.5t-80.5 31.5t-79.5 -31t-23.5 -97v-45q0 -66 23.5 -97t79.5 -31t80.5 31.5 t24.5 96.5z" glyph-name="eth" unicode="ð"/><glyph d="M490 753v-94q-50 -23 -92 -23t-99 20.5t-100 20.5q-44 0 -98 -24v95q54 24 98 24q43 0 100 -21t99 -21t92 23zM554 337v-337h-147v346q0 49 -22 70.5t-81 21.5h-92v-438h-147v554h250q127 0 183 -47.5t56 -169.5z" glyph-name="ntilde" horiz-adv-x="614" unicode="ñ"/><glyph d="M263 782l105 -166h-114l-124 166h133zM549 324v-95q0 -242 -253 -242q-251 0 -251 242v95q0 242 251 242q253 0 253 -242zM401 230v93q0 65 -24.5 96.5t-80.5 31.5t-79.5 -31t-23.5 -97v-93q0 -66 23.5 -97t79.5 -31t80.5 31.5t24.5 96.5z" glyph-name="ograve" unicode="ò"/><glyph d="M335 784h134l-124 -166h-114zM548 324v-95q0 -242 -252 -242q-251 0 -251 242v95q0 242 251 242q252 0 252 -242zM401 230v93q0 65 -24.5 96.5t-80.5 31.5t-79.5 -31t-23.5 -97v-93q0 -66 23.5 -97t79.5 -31t80.5 31.5t24.5 96.5z" glyph-name="oacute" horiz-adv-x="593" unicode="ó"/><glyph d="M379 780l122 -149h-114l-91 90l-89 -90h-114l122 149h164zM549 324v-95q0 -242 -253 -242q-251 0 -251 242v95q0 242 251 242q253 0 253 -242zM401 230v93q0 65 -24.5 96.5t-80.5 31.5t-79.5 -31t-23.5 -97v-93q0 -66 23.5 -97t79.5 -31t80.5 31.5t24.5 96.5z" glyph-name="ocircumflex" unicode="ô"/><glyph d="M491 753v-94q-50 -23 -92 -23t-98.5 20.5t-99.5 20.5q-45 0 -99 -24v95q54 24 99 24q43 0 99.5 -21t98.5 -21t92 23zM549 324v-95q0 -242 -253 -242q-251 0 -251 242v95q0 242 251 242q253 0 253 -242zM401 230v93q0 65 -24.5 96.5t-80.5 31.5t-79.5 -31t-23.5 -97v-93 q0 -66 23.5 -97t79.5 -31t80.5 31.5t24.5 96.5z" glyph-name="otilde" unicode="õ"/><glyph d="M474 699q0 -68 -72 -68q-71 0 -71 68q0 67 71 67q72 0 72 -67zM263 699q0 -68 -71 -68q-72 0 -72 68q0 67 72 67q71 0 71 -67zM549 324v-95q0 -242 -253 -242q-251 0 -251 242v95q0 242 251 242q253 0 253 -242zM401 230v93q0 65 -24.5 96.5t-80.5 31.5t-79.5 -31 t-23.5 -97v-93q0 -66 23.5 -97t79.5 -31t80.5 31.5t24.5 96.5z" glyph-name="odieresis" unicode="ö"/><glyph d="M380 470q0 -66 -70 -66q-69 0 -69 66q0 65 69 65q70 0 70 -65zM551 334v-115h-481v115h481zM380 84q0 -66 -70 -66q-69 0 -69 66q0 65 69 65q70 0 70 -65z" glyph-name="divide" horiz-adv-x="621" unicode="÷"/><glyph d="M549 324v-95q0 -242 -253 -242q-68 0 -116 18l-51 -80l-75 47l50 80q-59 61 -59 177v95q0 242 251 242q70 0 114 -17l47 75l75 -47l-45 -73q62 -62 62 -180zM401 230v93q0 65 -24.5 96.5t-80.5 31.5t-79.5 -31t-23.5 -97v-93q0 -66 23.5 -97t79.5 -31t80.5 31.5 t24.5 96.5z" glyph-name="oslash" unicode="ø"/><glyph d="M279 782l105 -166h-115l-124 166h134zM556 554v-325q0 -242 -248 -242t-248 242v325h148v-324q0 -67 21.5 -97.5t78.5 -30.5t78.5 30.5t21.5 97.5v324h148z" glyph-name="ugrave" horiz-adv-x="616" unicode="ù"/><glyph d="M334 784h133l-124 -166h-113zM556 554v-325q0 -242 -248 -242t-248 242v325h148v-324q0 -67 21.5 -97.5t78.5 -30.5t78.5 30.5t21.5 97.5v324h148z" glyph-name="uacute" horiz-adv-x="616" unicode="ú"/><glyph d="M389 780l122 -149h-113l-91 90l-90 -90h-114l122 149h164zM556 554v-325q0 -242 -248 -242t-248 242v325h148v-324q0 -67 21.5 -97.5t78.5 -30.5t78.5 30.5t21.5 97.5v324h148z" glyph-name="ucircumflex" horiz-adv-x="616" unicode="û"/><glyph d="M484 699q0 -68 -71 -68q-72 0 -72 68q0 67 72 67q71 0 71 -67zM274 699q0 -68 -72 -68t-72 68q0 67 72 67t72 -67zM556 554v-325q0 -242 -248 -242t-248 242v325h148v-324q0 -67 21.5 -97.5t78.5 -30.5t78.5 30.5t21.5 97.5v324h148z" glyph-name="udieresis" horiz-adv-x="616" unicode="ü"/><glyph d="M315 784h134l-124 -166h-114zM422 554h156l-256 -767h-155l69 204q-45 16 -67 80l-164 483h156l131 -413z" glyph-name="yacute" horiz-adv-x="583" unicode="ý"/><glyph d="M561 312v-71q0 -68 -19 -116.5t-53 -75t-72.5 -38t-84.5 -11.5h-119v-213h-148v980h148v-213h119q46 0 84.5 -12t72.5 -38t53 -75t19 -117zM413 243v67q0 65 -24 96.5t-80 31.5h-96v-323h96q56 0 80 31.5t24 96.5z" glyph-name="thorn" horiz-adv-x="606" unicode="þ"/><glyph d="M468 699q0 -68 -71 -68q-72 0 -72 68q0 67 72 67q71 0 71 -67zM257 699q0 -68 -71 -68q-72 0 -72 68q0 67 72 67q71 0 71 -67zM421 554h157l-257 -767h-154l69 204q-45 16 -67 80l-164 483h156l131 -413z" glyph-name="ydieresis" horiz-adv-x="583" unicode="ÿ"/><glyph d="M596 294v-65q0 -66 -22.5 -114.5t-62 -75.5t-86.5 -39.5t-102 -12.5t-102 12.5t-86.5 39.5t-62 75.5t-22.5 114.5v261q0 66 22.5 114.5t62 75.5t86.5 40t102 13t102 -13t86.5 -40t62 -75.5t22.5 -114.5v-42h-158v37q0 126 -115 126q-59 0 -87 -32.5t-28 -101.5v-234 q0 -69 28 -101.5t87 -32.5t87 32.5t28 101.5v51h158zM413 980h114l-122 -149h-164l-122 149h114l89 -90z" glyph-name="Ccaron" horiz-adv-x="646" unicode="Č"/><glyph d="M213 554v-554h-148v554h148z" glyph-name="dotlessi" horiz-adv-x="278" unicode="ı"/><glyph d="M544 123v-123h-451v280l-78 -31v101l78 31v339h157v-274l182 74v-102l-182 -73v-222h294z" glyph-name="Lslash" horiz-adv-x="564" unicode="Ł"/><glyph d="M274 516v-100l-61 -26v-390h-148v330l-61 -25v101l61 25v336h148v-277z" glyph-name="lslash" horiz-adv-x="278" unicode="ł"/><glyph d="M875 123v-123h-447q-48 -13 -105 -13q-55 0 -102 12.5t-86.5 39.5t-62 75.5t-22.5 114.5v262q0 66 22.5 114.5t62 75.5t86.5 39.5t102 12.5q57 0 105 -13h446v-123h-278v-174h258v-120h-258v-180h279zM438 243v234q0 69 -28 101t-87 32t-87 -32t-28 -101v-234 q0 -69 28 -101.5t87 -32.5t87 32.5t28 101.5z" glyph-name="OE" horiz-adv-x="915" unicode="Œ"/><glyph d="M905 324v-85h-356v-6q0 -66 23 -98.5t78 -32.5q36 0 58 12.5t29.5 26t15.5 37.5h149q-26 -191 -250 -191q-116 0 -178 51q-62 -51 -178 -51q-251 0 -251 242v95q0 242 251 242q116 0 178 -51q62 51 178 51q253 0 253 -242zM549 333h208q0 118 -105 118q-56 0 -78.5 -29 t-24.5 -89zM401 229v95q0 65 -24.5 96t-80.5 31t-79.5 -31t-23.5 -97v-93q0 -66 23.5 -97t79.5 -31t80.5 31t24.5 96z" glyph-name="oe" horiz-adv-x="950" unicode="œ"/><glyph d="M391 947h114l-122 -149h-164l-122 149h114l91 -90zM574 206v-16q0 -98 -72.5 -150.5t-193.5 -52.5q-266 0 -266 214v20h159v-24q0 -88 113 -88q50 0 75.5 22t25.5 53v14q0 47 -47 67q-13 6 -193 64q-135 45 -135 189v15q0 96 71 148t190 52q267 0 268 -213v-5h-159v4 q0 91 -110 91q-50 0 -75.5 -21t-25.5 -52v-12q0 -24 10.5 -40t40.5 -29q12 -5 49.5 -17t83.5 -26.5t56 -17.5q135 -45 135 -189z" glyph-name="Scaron" horiz-adv-x="614" unicode="Š"/><glyph d="M371 780h114l-122 -148h-164l-122 148h113l91 -90zM523 388v-7h-148v3q0 67 -97 67q-90 0 -90 -50v-4q0 -18 10 -27.5t39 -19.5q14 -4 87 -23.5t84 -22.5q114 -34 114 -142v-11q0 -83 -62.5 -123.5t-172.5 -40.5t-176.5 46.5t-66.5 131.5v23h148v-19q0 -67 97 -67 q86 0 86 55v7q0 18 -10 27.5t-39 19.5q-14 4 -87 23.5t-84 22.5q-115 34 -115 142v10q0 72 68 114.5t172 42.5q110 0 176.5 -46.5t66.5 -131.5z" glyph-name="scaron" horiz-adv-x="563" unicode="š"/><glyph d="M480 865q0 -67 -72 -67t-72 67q0 68 72 68t72 -68zM269 865q0 -67 -72 -67q-71 0 -71 67q0 68 71 68q72 0 72 -68zM436 720h174l-228 -509v-211h-158v206l-229 514h173l136 -333z" glyph-name="Ydieresis" horiz-adv-x="605" unicode="Ÿ"/><glyph d="M394 946h114l-122 -148h-164l-123 148h114l90 -90zM573 123v-123h-538v112l336 486h-329v122h526v-116l-333 -481h338z" glyph-name="Zcaron" horiz-adv-x="608" unicode="Ž"/><glyph d="M350 780h114l-123 -149h-164l-122 149h114l91 -90zM489 115v-115h-459v105l259 333h-253v116h450v-104l-261 -335h264z" glyph-name="zcaron" horiz-adv-x="519" unicode="ž"/><glyph d="M498 733v-115h-70q-20 0 -32.5 -10.5t-16 -22t-6.5 -28.5l-24 -172h116v-79h-127l-55 -383q-17 -120 -66 -158.5t-166 -38.5h-46v115h71q29 0 39.5 16.5t14.5 44.5l58 404h-139v79h150l21 150q17 119 66.5 158.5t166.5 39.5h45z" glyph-name="florin" horiz-adv-x="533" unicode="ƒ"/><glyph d="M379 780l122 -149h-114l-91 90l-89 -90h-114l122 149h164z" glyph-name="circumflex" unicode="ˆ"/><glyph d="M387 780h114l-122 -149h-164l-122 149h114l89 -90z" glyph-name="caron" unicode="ˇ"/><glyph d="M396 787h88q0 -20 -3 -38.5t-14.5 -42t-30.5 -40t-55 -28t-85 -11.5t-85 11.5t-55.5 28t-31 40t-14.5 42t-3 38.5h88q0 -64 101 -64q100 0 100 64z" glyph-name="breve" unicode="˘"/><glyph d="M368 699q0 -68 -72 -68q-71 0 -71 68q0 67 71 67q72 0 72 -67z" glyph-name="dotaccent" unicode="˙"/><glyph d="M425 718q0 -18 -3.5 -34.5t-15 -38.5t-40 -35.5t-70.5 -13.5t-70.5 13.5t-40 35.5t-15.5 38.5t-4 34.5t4 34.5t15.5 38.5t40 35.5t70.5 13.5t70.5 -13.5t40 -35.5t15 -38.5t3.5 -34.5zM357 718q0 58 -61 58q-26 0 -41 -12t-18 -23t-3 -23t3 -23t18 -23t41 -12q61 0 61 58 z" glyph-name="ring" unicode="˚"/><glyph d="M365 24h89q-2 -1 -23 -13.5t-30 -19.5t-24.5 -20.5t-22.5 -28t-7 -30.5q0 -24 12 -33.5t38 -9.5h41v-82h-59q-129 0 -129 109v6q0 47 37.5 83.5t77.5 38.5z" glyph-name="ogonek" unicode="˛"/><glyph d="M491 753v-94q-50 -23 -92 -23t-98.5 20.5t-99.5 20.5q-45 0 -99 -24v95q54 24 99 24q43 0 99.5 -21t98.5 -21t92 23z" glyph-name="tilde" unicode="˜"/><glyph d="M423 787h115l-124 -165h-95zM261 787h115l-124 -165h-95z" glyph-name="hungarumlaut" unicode="˝"/><glyph d="M624 277q0 -74 -37 -112.5t-103 -38.5q0 -66 -38 -102.5t-112 -36.5q-149 0 -149 139q-66 0 -103 38.5t-37 112.5q0 75 36.5 112t103.5 37q0 67 37 103.5t112 36.5q74 0 112 -36.5t38 -103.5q67 0 103.5 -37t36.5 -112zM549 277q0 42 -14.5 58t-55.5 16h-70v73 q0 38 -17 52.5t-58 14.5q-40 0 -57 -14t-17 -53v-73h-69q-41 0 -56 -16t-15 -58t15 -59t56 -17h69v-69q0 -41 16 -55.5t58 -14.5t58.5 14.5t16.5 55.5v69h70q40 0 55 17t15 59z" glyph-name="pi" horiz-adv-x="669" unicode="π"/><glyph d="M502 338v-115h-467v115h467z" glyph-name="endash" horiz-adv-x="537" unicode="–"/><glyph d="M822 338v-115h-787v115h787z" glyph-name="emdash" horiz-adv-x="857" unicode="—"/><glyph d="M115 720l50 -255h-111l-59 255h120z" glyph-name="quoteleft" horiz-adv-x="195" unicode="‘"/><glyph d="M80 720h120l-60 -255h-110z" glyph-name="quoteright" horiz-adv-x="195" unicode="’"/><glyph d="M80 162h120l-60 -255h-110z" glyph-name="quotesinglbase" horiz-adv-x="215" unicode="‚"/><glyph d="M272 720l56 -255h-100l-65 255h109zM110 720l56 -255h-100l-66 255h110z" glyph-name="quotedblleft" horiz-adv-x="358" unicode="“"/><glyph d="M248 720h110l-66 -255h-100zM86 720h109l-65 -255h-100z" glyph-name="quotedblright" horiz-adv-x="353" unicode="”"/><glyph d="M248 169h110l-65 -255h-101zM86 169h110l-65 -255h-101z" glyph-name="quotedblbase" horiz-adv-x="373" unicode="„"/><glyph d="M460 523v-93h-150v-430h-116v430h-150v93h150v197h116v-197h150z" glyph-name="dagger" horiz-adv-x="504" unicode="†"/><glyph d="M437 262v-93h-151v-169h-116v169h-150v93h150v200h-150v93h150v165h116v-165h150v-93h-150v-200h151z" glyph-name="daggerdbl" horiz-adv-x="457" unicode="‡"/><glyph d="M369 342q0 -22 -4.5 -42t-18 -46t-47.5 -42t-85 -16q-154 0 -154 146t154 146q51 0 85 -16t47.5 -42t18 -46t4.5 -42z" glyph-name="bullet" horiz-adv-x="429" unicode="•"/><glyph d="M730 78q0 -91 -96 -91t-96 91t96 91t96 -91zM483 78q0 -91 -95 -91q-96 0 -96 91t96 91q95 0 95 -91zM238 78q0 -13 -3 -25.5t-11.5 -29t-30 -26.5t-52.5 -10q-96 0 -96 91t96 91q31 0 52.5 -10t30 -26.5t11.5 -29t3 -25.5z" glyph-name="ellipsis" horiz-adv-x="775" unicode="…"/><glyph d="M968 248v-132q0 -123 -126 -123q-125 0 -125 123v132q0 123 125 123q126 0 126 -123zM684 248v-132q0 -123 -127 -123t-127 123v132q0 123 127 123t127 -123zM528 720h98l-428 -720h-98zM301 603v-132q0 -123 -126 -123q-125 0 -125 123v132q0 123 125 123 q126 0 126 -123zM885 106v151q0 47 -43 47t-43 -47v-151q0 -46 43 -46t43 46zM600 106v151q0 47 -43 47t-43 -47v-151q0 -46 43 -46t43 46zM218 461v151q0 47 -43 47t-43 -47v-151q0 -45 43 -45t43 45z" glyph-name="perthousand" horiz-adv-x="1018" unicode="‰"/><glyph d="M114 277l96 -193h-109l-96 193l96 193h109z" glyph-name="guilsinglleft" horiz-adv-x="240" unicode="‹"/><glyph d="M139 470l96 -193l-96 -193h-109l97 193l-97 193h109z" glyph-name="guilsinglright" horiz-adv-x="240" unicode="›"/><glyph d="M476 720h97l-427 -720h-97z" glyph-name="fraction" horiz-adv-x="572" unicode="⁄"/><glyph d="M522 116v-116h-137q-116 0 -185.5 57t-69.5 185v32h-110v65h110v47h-110v65h110v27q0 128 69.5 185t185.5 57h137v-116h-130q-114 0 -114 -122v-31h210v-65h-210v-47h210v-65h-210v-36q0 -122 114 -122h130z" glyph-name="Euro" horiz-adv-x="572" unicode="€"/><glyph d="M712 720v-366h-84v256l-82 -256h-66l-81 255v-255h-84v366h125l73 -238l74 238h125zM277 720v-67h-86v-299h-86v299h-85v67h257z" glyph-name="trademark" horiz-adv-x="767" unicode="™"/><glyph d="M870 428v-95q0 -59 -3.5 -96t-15.5 -74.5t-37 -62t-65 -40.5v-37q0 -24 -25 -24q-26 0 -26 24v21q-66 -15 -165 -15q-97 0 -164 14v-20q0 -24 -26 -24q-24 0 -24 24v34q-42 16 -68 40.5t-38.5 62.5t-16.5 75.5t-4 97.5v95q0 48 2 80t10 67t22 56.5t39 43t61 32.5t87 18 t118 7t118 -7t87 -18t61 -32.5t39 -43t22 -56.5t10 -67t2 -80zM941 -32v-92h-823v92h823zM1040 -171v-107h-1020v107h1020zM662 677q0 11 -6.5 14t-25.5 3h-198q-20 0 -26.5 -3t-6.5 -14t6.5 -14t26.5 -3h198q19 0 25.5 3t6.5 14zM774 480q0 47 -10 76t-33.5 42t-48 17 t-67.5 4h-168q-43 0 -67.5 -4t-48 -17t-33.5 -42t-10 -76t10 -75.5t33.5 -42t48 -17t67.5 -3.5h168q43 0 67.5 3.5t48 17t33.5 42t10 75.5zM774 235q0 52 -55 52q-54 0 -54 -52q0 -51 54 -51q55 0 55 51zM398 234q0 52 -54 52t-54 -51q0 -52 54 -52t54 51z" glyph-name="uni2126" horiz-adv-x="1060" unicode="Ω"/><glyph d="M568 424v-21q0 -65 -37 -89t-99 -24h-39v-116h-86v363h125q62 0 99 -24t37 -89zM482 402v23q0 43 -47 43h-42v-109h42q47 0 47 43zM45 360q0 168 102.5 270.5t270.5 102.5t270.5 -102.5t102.5 -270.5t-102.5 -270.5t-270.5 -102.5t-270.5 102.5t-102.5 270.5zM129 361 q0 -131 79.5 -210t209.5 -79t209 79.5t79 209.5t-79 209t-209 79t-209.5 -79t-79.5 -209z" glyph-name="partialdiff" horiz-adv-x="835" unicode="∂"/><glyph d="M658 277q0 -39 -6 -74.5t-25.5 -76.5t-51 -70.5t-89.5 -49t-134 -19.5t-134 19.5t-90 49t-51.5 70.5t-25.5 76.5t-6 74.5t6 74t25.5 76t51.5 70.5t90 49t134 19.5t134 -19.5t89.5 -48.5t51 -70.5t25.5 -76.5t6 -74zM581 277q0 40 -9 73.5t-31.5 67.5t-71 54t-117.5 20 t-117.5 -20t-71 -54t-31.5 -67.5t-9 -73.5q0 -31 5 -58t20 -57.5t39 -51.5t66.5 -35t98.5 -14t98.5 14t66.5 35t39 51.5t20 57.5t5 58z" glyph-name="uni2206" horiz-adv-x="703" unicode="∆"/><glyph d="M549 277q0 42 -14.5 58t-55.5 16h-70v73q0 38 -17 52.5t-58 14.5q-40 0 -57 -14t-17 -53v-73h-69q-41 0 -56 -16t-15 -58t15 -59t56 -17h69v-69q0 -41 16 -55.5t58 -14.5t58.5 14.5t16.5 55.5v69h70q40 0 55 17t15 59zM624 277q0 -74 -37 -112.5t-103 -38.5 q0 -66 -38 -102.5t-112 -36.5q-149 0 -149 139q-66 0 -103 38.5t-37 112.5q0 75 36.5 112t103.5 37q0 67 37 103.5t112 36.5q74 0 112 -36.5t38 -103.5q67 0 103.5 -37t36.5 -112zM403 276q0 -66 -69 -66q-68 0 -68 66q0 65 68 65q69 0 69 -65z" glyph-name="product" horiz-adv-x="669" unicode="∏"/><glyph d="M1342 481q0 -46 -28.5 -73.5t-76.5 -27.5h-185q2 -8 2 -16q0 -74 -49 -99q6 -22 6 -40q0 -35 -17.5 -60.5t-48.5 -34.5q4 -18 4 -33q0 -44 -26.5 -71t-71.5 -27h-283q-85 0 -138 19v-53h-365v589h365v-39q93 67 237 67h570q48 0 76.5 -27.5t28.5 -73.5zM1268 481 q0 27 -39 27h-562q-56 0 -99.5 -11t-81 -36t-64.5 -51.5t-66 -72.5v144h-217v-443h217v143q52 -71 87 -89.5t125 -18.5h273q33 0 33 27t-33 27h-22q-15 0 -27 8.5t-12 26.5t12.5 28t29.5 10h82q32 0 32 28q0 26 -32 26h-85q-15 0 -27 9.5t-12 26.5q0 16 11 26.5t28 10.5h127 q34 0 34 28q0 26 -34 26h-127q-39 0 -39 36q0 19 11.5 27.5t27.5 8.5h410q39 0 39 28zM286 122q0 -36 -39 -36q-38 0 -38 36t38 36q39 0 39 -36z" glyph-name="summation" horiz-adv-x="1372" unicode="∑"/><glyph d="M531 334v-115h-481v115h481z" glyph-name="minus" horiz-adv-x="581" unicode="−"/><glyph d="M746 665l320 -320l-320 -321l-82 82l182 181h-826v115h826l-182 182z" glyph-name="radical" horiz-adv-x="1086" unicode="√"/><glyph d="M556 284v-93h-254v529h119v-436h135zM526 123v-123h-451v720h158v-597h293z" glyph-name="infinity" horiz-adv-x="576" unicode="∞"/><glyph d="M658 277q0 -39 -6 -74.5t-25.5 -76.5t-51 -70.5t-89.5 -49t-134 -19.5t-134 19.5t-90 49t-51.5 70.5t-25.5 76.5t-6 74.5t6 74t25.5 76t51.5 70.5t90 49t134 19.5t134 -19.5t89.5 -48.5t51 -70.5t25.5 -76.5t6 -74zM581 277q0 40 -9 73.5t-31.5 67.5t-71 54t-117.5 20 t-117.5 -20t-71 -54t-31.5 -67.5t-9 -73.5q0 -31 5 -58t20 -57.5t39 -51.5t66.5 -35t98.5 -14t98.5 14t66.5 35t39 51.5t20 57.5t5 58zM310 438l163 -161l-163 -163l-51 53l109 110l-109 110z" glyph-name="integral" horiz-adv-x="703" unicode="∫"/><glyph d="M658 277q0 -39 -6 -74.5t-25.5 -76.5t-51 -70.5t-89.5 -49t-134 -19.5t-134 19.5t-90 49t-51.5 70.5t-25.5 76.5t-6 74.5t6 74t25.5 76t51.5 70.5t90 49t134 19.5t134 -19.5t89.5 -48.5t51 -70.5t25.5 -76.5t6 -74zM581 277q0 40 -9 73.5t-31.5 67.5t-71 54t-117.5 20 t-117.5 -20t-71.5 -54t-32 -68t-9 -73q0 -40 9 -73.5t32 -68t71.5 -54.5t117.5 -20q56 0 98.5 14t66.5 35t39 51.5t20 57.5t5 58zM508 314v-73h-313v73h313z" glyph-name="approxequal" horiz-adv-x="703" unicode="≈"/><glyph d="M550 232v-115h-266l-54 -96h-103l53 96h-110v115h173l50 94h-223v114h286l50 92h107l-51 -92h88v-114h-151l-52 -94h203z" glyph-name="notequal" horiz-adv-x="620" unicode="≠"/><glyph d="M566 251v-113l-494 178v101l494 179v-114l-339 -115zM568 105v-105h-498v105h498z" glyph-name="lessequal" horiz-adv-x="638" unicode="≤"/><glyph d="M566 417v-101l-495 -178v113l339 116l-339 115v114zM568 105v-105h-498v105h498z" glyph-name="greaterequal" horiz-adv-x="638" unicode="≥"/><glyph d="M357 720l172 -361l-172 -359h-116l-171 359l171 361h116zM299 126l112 234l-112 233l-111 -233z" glyph-name="lozenge" horiz-adv-x="599" unicode="◊"/><glyph d="M658 277q0 -39 -6 -74.5t-25.5 -76.5t-51 -70.5t-89.5 -49t-134 -19.5t-134 19.5t-90 49t-51.5 70.5t-25.5 76.5t-6 74.5t6 74t25.5 76t51.5 70.5t90 49t134 19.5t134 -19.5t89.5 -48.5t51 -70.5t25.5 -76.5t6 -74zM581 277q0 40 -9 73.5t-31.5 67.5t-71 54t-117.5 20 t-117.5 -20t-71.5 -54t-32 -68t-9 -73q0 -40 9 -73.5t32 -68t71.5 -54.5t117.5 -20q56 0 98.5 14t66.5 35t39 51.5t20 57.5t5 58zM507 314v-73h-118v-118h-76v118h-119v73h119v118h76v-118h118z" glyph-name="uniF8FF" horiz-adv-x="703" unicode=""/><glyph d="M606 701q0 -88 -92 -88q-30 0 -50.5 9.5t-28.5 25.5t-11 28t-3 25t3 25t11 27.5t28.5 25t50.5 9.5q92 0 92 -87zM587 554v-554h-148v438h-202v-438h-148v438h-69v116h69v64q0 80 46.5 114.5t145.5 34.5h58v-115h-57q-45 0 -45 -58v-40h350z" glyph-name="uniFB01" horiz-adv-x="652" unicode="ﬁ"/><glyph d="M601 767v-767h-148v652h-171q-26 0 -35.5 -15t-9.5 -43v-40h93v-116h-93v-438h-148v438h-69v116h69v64q0 80 46.5 114.5t145.5 34.5h320z" glyph-name="uniFB02" horiz-adv-x="666" unicode="ﬂ"/></font>
</defs>
</svg>
